{"accessors" : [{"bufferView" : 0, "byteOffset" : 0, "componentType" : 5123, "count" : 2610, "type" : "SCALAR", "max" : [2191], "min" : [0]}, {"bufferView" : 1, "byteOffset" : 0, "componentType" : 5126, "count" : 2192, "type" : "VEC3", "max" : [1, 1.7573444843292236, 1], "min" : [-1, -5.169130802154541, -1], "name" : "POSITION"}, {"bufferView" : 1, "byteOffset" : 12, "componentType" : 5126, "count" : 2192, "type" : "VEC3", "max" : [0.9825332760810852, 1.0000044107437134, 0.9825332164764404], "min" : [-0.9825332164764404, -1.0000044107437134, -0.9825332164764404], "name" : "NORMAL"}, {"bufferView" : 1, "byteOffset" : 24, "componentType" : 5126, "count" : 2192, "type" : "VEC2", "max" : [1, 0.9900000095367432], "min" : [0, 0], "name" : "TEXCOORD_0"}, {"bufferView" : 0, "byteOffset" : 5220, "componentType" : 5123, "count" : 2958, "type" : "SCALAR", "max" : [2470], "min" : [0]}, {"bufferView" : 2, "byteOffset" : 0, "componentType" : 5126, "count" : 2471, "type" : "VEC3", "max" : [1, 2.107639789581299, 1.0344312191009521], "min" : [-1.0344310998916626, -5.169130802154541, -1], "name" : "POSITION"}, {"bufferView" : 2, "byteOffset" : 12, "componentType" : 5126, "count" : 2471, "type" : "VEC3", "max" : [0.9851033687591553, 1.0000044107437134, 0.9841402769088745], "min" : [-0.9836070537567139, -1.0000044107437134, -0.9845230579376221], "name" : "NORMAL"}, {"bufferView" : 2, "byteOffset" : 24, "componentType" : 5126, "count" : 2471, "type" : "VEC2", "max" : [1, 0.9900000095367432], "min" : [0, -1.1920928955078125E-07], "name" : "TEXCOORD_0"}], "asset" : {"generator" : "Aspose.3D 22.5.1", "version" : "2.0"}, "buffers" : [{"uri" : "data:application/octet-stream;base64,", "byteLength" : 189324}], "bufferViews" : [{"buffer" : 0, "byteOffset" : 0, "byteLength" : 11136, "target" : 34963}, {"buffer" : 0, "byteOffset" : 11140, "byteLength" : 83520, "byteStride" : 32, "target" : 34962}, {"buffer" : 0, "byteOffset" : 94664, "byteLength" : 94656, "byteStride" : 32, "target" : 34962}], "materials" : [{"name" : "Material.002", "pbrMetallicRoughness" : {"baseColorFactor" : [0.800000011920929, 0.800000011920929, 0.800000011920929, 1], "metallicFactor" : 0, "roughnessFactor" : 0.4000000059604645}, "emissiveFactor" : [0, 0, 0], "alphaMode" : "OPAQUE", "doubleSided" : true}, {"name" : "Material.001", "pbrMetallicRoughness" : {"baseColorFactor" : [0.19711974263191223, 0.19711974263191223, 0.19711974263191223, 1], "metallicFactor" : 0, "roughnessFactor" : 0.4000000059604645}, "emissiveFactor" : [0, 0, 0], "alphaMode" : "OPAQUE", "doubleSided" : true}], "meshes" : [{"primitives" : [{"attributes" : {"POSITION" : 1, "NORMAL" : 2, "TEXCOORD_0" : 3}, "indices" : 0, "material" : 0, "mode" : 4}, {"attributes" : {"POSITION" : 5, "NORMAL" : 6, "TEXCOORD_0" : 7}, "indices" : 4, "material" : 1, "mode" : 4}]}], "nodes" : [{"mesh" : 0, "name" : "Cylinder"}], "scene" : 0, "scenes" : [{"nodes" : [0]}]}